<mxfile host="app.diagrams.net" modified="2023-08-10T12:41:53.092Z" agent="Mozilla/5.0 (X11; Linux x86_64) AppleWebKit/537.36 (KHTML, like Gecko) Chrome/115.0.0.0 Safari/537.36" etag="ti1CldtqPABXZvIfsQFJ" version="21.6.6" type="github">
  <diagram name="Page-1" id="_2Z6cz3SAmyvh8yGuIhK">
    <mxGraphModel dx="1195" dy="671" grid="1" gridSize="10" guides="1" tooltips="1" connect="1" arrows="1" fold="1" page="1" pageScale="1" pageWidth="827" pageHeight="1169" math="0" shadow="0">
      <root>
        <mxCell id="0" />
        <mxCell id="1" parent="0" />
        <mxCell id="iT6jARpC1cka4xQiKTI5-1" value="Where is India Located?" style="rounded=0;whiteSpace=wrap;html=1;" vertex="1" parent="1">
          <mxGeometry x="85" y="230" width="120" height="60" as="geometry" />
        </mxCell>
        <mxCell id="iT6jARpC1cka4xQiKTI5-2" value="Teacher Creates Question" style="text;html=1;strokeColor=none;fillColor=none;align=center;verticalAlign=middle;whiteSpace=wrap;rounded=0;" vertex="1" parent="1">
          <mxGeometry x="110" y="50" width="70" height="70" as="geometry" />
        </mxCell>
        <mxCell id="iT6jARpC1cka4xQiKTI5-3" value="" style="shape=flexArrow;endArrow=classic;html=1;rounded=0;width=11.666666666666668;endSize=18.116666666666667;exitX=0.5;exitY=1;exitDx=0;exitDy=0;endWidth=20.555555555555554;" edge="1" parent="1" source="iT6jARpC1cka4xQiKTI5-2">
          <mxGeometry width="50" height="50" relative="1" as="geometry">
            <mxPoint x="137.10052631578935" y="140" as="sourcePoint" />
            <mxPoint x="152.89" y="200" as="targetPoint" />
          </mxGeometry>
        </mxCell>
        <mxCell id="iT6jARpC1cka4xQiKTI5-5" value="LLM suggests an answer" style="rounded=1;whiteSpace=wrap;html=1;" vertex="1" parent="1">
          <mxGeometry x="270" y="180" width="120" height="60" as="geometry" />
        </mxCell>
        <mxCell id="iT6jARpC1cka4xQiKTI5-6" value="" style="endArrow=none;dashed=1;html=1;rounded=0;entryX=0;entryY=0.5;entryDx=0;entryDy=0;" edge="1" parent="1" source="iT6jARpC1cka4xQiKTI5-1" target="iT6jARpC1cka4xQiKTI5-5">
          <mxGeometry width="50" height="50" relative="1" as="geometry">
            <mxPoint x="360" y="310" as="sourcePoint" />
            <mxPoint x="410" y="260" as="targetPoint" />
          </mxGeometry>
        </mxCell>
        <mxCell id="iT6jARpC1cka4xQiKTI5-7" value="Teacher specifies an answer&lt;br&gt;" style="rounded=1;whiteSpace=wrap;html=1;" vertex="1" parent="1">
          <mxGeometry x="354" y="260" width="120" height="60" as="geometry" />
        </mxCell>
        <mxCell id="iT6jARpC1cka4xQiKTI5-8" value="" style="endArrow=none;html=1;rounded=0;exitX=1;exitY=0.75;exitDx=0;exitDy=0;" edge="1" parent="1" source="iT6jARpC1cka4xQiKTI5-1" target="iT6jARpC1cka4xQiKTI5-7">
          <mxGeometry width="50" height="50" relative="1" as="geometry">
            <mxPoint x="360" y="310" as="sourcePoint" />
            <mxPoint x="410" y="260" as="targetPoint" />
          </mxGeometry>
        </mxCell>
        <mxCell id="iT6jARpC1cka4xQiKTI5-9" value="" style="endArrow=none;html=1;rounded=0;entryX=0.5;entryY=1;entryDx=0;entryDy=0;" edge="1" parent="1" target="iT6jARpC1cka4xQiKTI5-1">
          <mxGeometry width="50" height="50" relative="1" as="geometry">
            <mxPoint x="160" y="380" as="sourcePoint" />
            <mxPoint x="410" y="260" as="targetPoint" />
          </mxGeometry>
        </mxCell>
        <mxCell id="iT6jARpC1cka4xQiKTI5-10" value="Student&#39;s answer" style="rounded=1;whiteSpace=wrap;html=1;" vertex="1" parent="1">
          <mxGeometry x="110" y="380" width="120" height="60" as="geometry" />
        </mxCell>
        <mxCell id="iT6jARpC1cka4xQiKTI5-11" value="Pairwise metric/grade by LLM" style="ellipse;whiteSpace=wrap;html=1;aspect=fixed;" vertex="1" parent="1">
          <mxGeometry x="430" y="470" width="80" height="80" as="geometry" />
        </mxCell>
        <mxCell id="iT6jARpC1cka4xQiKTI5-12" value="Pairwise metric/grade by LLM" style="ellipse;whiteSpace=wrap;html=1;aspect=fixed;" vertex="1" parent="1">
          <mxGeometry x="440" y="130" width="80" height="80" as="geometry" />
        </mxCell>
        <mxCell id="iT6jARpC1cka4xQiKTI5-13" value="" style="endArrow=none;dashed=1;html=1;dashPattern=1 3;strokeWidth=2;rounded=0;entryX=0.208;entryY=0.019;entryDx=0;entryDy=0;exitX=0.376;exitY=1.039;exitDx=0;exitDy=0;exitPerimeter=0;entryPerimeter=0;" edge="1" parent="1" source="iT6jARpC1cka4xQiKTI5-7" target="iT6jARpC1cka4xQiKTI5-11">
          <mxGeometry width="50" height="50" relative="1" as="geometry">
            <mxPoint x="380" y="330" as="sourcePoint" />
            <mxPoint x="410" y="260" as="targetPoint" />
          </mxGeometry>
        </mxCell>
        <mxCell id="iT6jARpC1cka4xQiKTI5-14" value="" style="endArrow=none;dashed=1;html=1;dashPattern=1 3;strokeWidth=2;rounded=0;entryX=0.64;entryY=-0.072;entryDx=0;entryDy=0;exitX=0;exitY=1;exitDx=0;exitDy=0;entryPerimeter=0;" edge="1" parent="1" source="iT6jARpC1cka4xQiKTI5-12" target="iT6jARpC1cka4xQiKTI5-7">
          <mxGeometry width="50" height="50" relative="1" as="geometry">
            <mxPoint x="474" y="200" as="sourcePoint" />
            <mxPoint x="405" y="268" as="targetPoint" />
          </mxGeometry>
        </mxCell>
        <mxCell id="iT6jARpC1cka4xQiKTI5-16" value="" style="endArrow=none;dashed=1;html=1;dashPattern=1 3;strokeWidth=2;rounded=0;entryX=0.083;entryY=0.831;entryDx=0;entryDy=0;entryPerimeter=0;exitX=1;exitY=0.5;exitDx=0;exitDy=0;" edge="1" parent="1" source="iT6jARpC1cka4xQiKTI5-5" target="iT6jARpC1cka4xQiKTI5-12">
          <mxGeometry width="50" height="50" relative="1" as="geometry">
            <mxPoint x="364" y="90" as="sourcePoint" />
            <mxPoint x="414" y="40" as="targetPoint" />
          </mxGeometry>
        </mxCell>
        <mxCell id="iT6jARpC1cka4xQiKTI5-17" value="" style="endArrow=none;dashed=1;html=1;dashPattern=1 3;strokeWidth=2;rounded=0;exitX=1;exitY=0.5;exitDx=0;exitDy=0;entryX=0.313;entryY=0.019;entryDx=0;entryDy=0;entryPerimeter=0;" edge="1" parent="1" source="iT6jARpC1cka4xQiKTI5-10" target="iT6jARpC1cka4xQiKTI5-11">
          <mxGeometry width="50" height="50" relative="1" as="geometry">
            <mxPoint x="360" y="310" as="sourcePoint" />
            <mxPoint x="340" y="390" as="targetPoint" />
          </mxGeometry>
        </mxCell>
        <mxCell id="iT6jARpC1cka4xQiKTI5-18" value="Pairwise metric/grade by LLM" style="ellipse;whiteSpace=wrap;html=1;aspect=fixed;" vertex="1" parent="1">
          <mxGeometry x="260" y="320" width="80" height="80" as="geometry" />
        </mxCell>
        <mxCell id="iT6jARpC1cka4xQiKTI5-19" value="" style="endArrow=none;dashed=1;html=1;dashPattern=1 3;strokeWidth=2;rounded=0;exitX=0.438;exitY=0.983;exitDx=0;exitDy=0;exitPerimeter=0;entryX=0;entryY=0;entryDx=0;entryDy=0;" edge="1" parent="1" source="iT6jARpC1cka4xQiKTI5-5" target="iT6jARpC1cka4xQiKTI5-18">
          <mxGeometry width="50" height="50" relative="1" as="geometry">
            <mxPoint x="360" y="310" as="sourcePoint" />
            <mxPoint x="410" y="260" as="targetPoint" />
          </mxGeometry>
        </mxCell>
        <mxCell id="iT6jARpC1cka4xQiKTI5-20" value="" style="endArrow=none;dashed=1;html=1;dashPattern=1 3;strokeWidth=2;rounded=0;exitX=0.708;exitY=-0.072;exitDx=0;exitDy=0;exitPerimeter=0;" edge="1" parent="1" source="iT6jARpC1cka4xQiKTI5-10">
          <mxGeometry width="50" height="50" relative="1" as="geometry">
            <mxPoint x="333" y="249" as="sourcePoint" />
            <mxPoint x="270" y="330" as="targetPoint" />
          </mxGeometry>
        </mxCell>
      </root>
    </mxGraphModel>
  </diagram>
</mxfile>
